<?xml version="1.0" encoding="UTF-8" standalone="no"?>
<svg
   version="1.1"
   id="Calque_1"
   x="0px"
   y="0px"
   viewBox="0 0 750 545"
   xml:space="preserve"
   sodipodi:docname="pokedex.svg"
   inkscape:version="1.1.2 (b8e25be833, 2022-02-05)"
   width="750"
   height="545"
   xmlns:inkscape="http://www.inkscape.org/namespaces/inkscape"
   xmlns:sodipodi="http://sodipodi.sourceforge.net/DTD/sodipodi-0.dtd"
   xmlns="http://www.w3.org/2000/svg"
   xmlns:svg="http://www.w3.org/2000/svg"><defs
   id="defs92" /><sodipodi:namedview
   id="namedview90"
   pagecolor="#ffffff"
   bordercolor="#111111"
   borderopacity="1"
   inkscape:pageshadow="0"
   inkscape:pageopacity="0"
   inkscape:pagecheckerboard="1"
   showgrid="false"
   inkscape:zoom="1.18125"
   inkscape:cx="429.62963"
   inkscape:cy="307.30159"
   inkscape:window-width="1920"
   inkscape:window-height="1017"
   inkscape:window-x="-8"
   inkscape:window-y="-8"
   inkscape:window-maximized="1"
   inkscape:current-layer="Calque_1"
   width="959px" />
            <g
   id="XMLID_1_"
   transform="translate(-68.571429,-4.2328042)">
              
              <path
   id="XMLID_3_"
   fill="#050505"
   d="m 71,34 c 0.3,-0.4 0.7,-0.7 0.8,-1.1 3.4,-14 12.5,-22.1 26.2,-24.8 6.6,-1.3 13.5,-2 20.3,-2 113,-0.1 226,-0.1 339,-0.1 6.4,0 12.4,1.6 18.8,3.8 0,14.1 0,28 0,42.2 1.6,0 2.9,0 4.2,0 19.3,0 38.7,0 58,0.2 16.1,0.1 31.2,4.1 45.3,11.8 15,8.1 28.4,18.5 41.7,29 10.1,7.9 19.8,16.2 31.3,22.1 17.5,9.1 36.1,14.3 55.9,14.3 32.5,0 65,-0.2 97.4,-0.4 1.8,0 3.6,0 5.8,0 0.1,2.3 0.2,4.1 0.2,5.9 0,35.5 0,71 0,106.5 0,86.1 0,172.3 -0.1,258.4 0,6.1 -0.8,12.3 -2,18.3 -2,10.5 -10.4,18.2 -21.7,18.6 -3,0.1 -6,0.4 -9,0.4 -100.6,0 -201.3,0 -301.9,0 -1.8,0 -3.6,0 -5.8,0 -0.7,4.3 -3.9,6 -7.5,7 -3,0.9 -6.1,1.4 -9.2,2.1 -0.4,0.1 -0.6,0.6 -0.9,0.9 -121.7,0 -243.3,0 -365,0 C 78.9,544 72.5,534.5 70.8,521.1 71,358.7 71,196.3 71,34 Z" />
              <path
   id="XMLID_4_"
   fill="#fcfcfc"
   d="m 71,521 c 0.6,1.6 1.4,3.2 1.8,4.8 2.8,10.1 9,17.1 19.2,20.3 0.4,0.1 0.7,0.6 1,0.9 -7.3,0 -14.7,0 -22,0 0,-8.7 0,-17.3 0,-26 z" />
              <path
   id="XMLID_5_"
   fill="#f23838"
   d="m 414,525 c -2.1,0 -4,0 -6,0 -95,0 -190,0 -284.9,0 -3.7,0 -7.3,-0.1 -11,0.3 -8.3,0.8 -14,-5.5 -15,-13.4 -0.3,-2 -0.2,-4 -0.2,-6 0,-2.2 0.2,-4.3 0.2,-6.5 0,-118.8 0,-237.6 0,-356.4 0,-3.5 -0.2,-7 -0.2,-10.5 0,-2.3 0,-4.7 0.5,-6.9 0.8,-3.5 2.4,-4.5 6.1,-4.6 3.7,-0.1 7.3,0 11,0 24.7,0 49.3,-0.1 74,0.2 15.8,0.1 30.9,-3.4 45.5,-9.1 14.6,-5.7 27.1,-14.6 39,-24.4 14.7,-12.2 29.8,-23.8 46,-34.1 6,-3.8 12.3,-7.3 19.4,-8.8 1.6,-0.3 3.2,-0.7 4.9,-0.7 21.3,0 42.7,0 64,0 5.5,0 8.3,2.5 8.9,7.9 0.2,1.8 0.1,3.7 0.1,5.5 -0.1,54 -0.1,108 -0.2,162 -0.2,68 -0.6,135.9 -0.9,203.9 -0.1,15.7 0,31.3 -0.1,47 -0.1,17.5 -0.4,34.9 -0.7,52.4 -0.2,0.4 -0.3,1.1 -0.4,2.2 z" />
              <path
   id="XMLID_6_"
   fill="#e23434"
   d="m 474,483.6 c -10.1,-7.5 -34.7,-7.7 -47,-1.1 0,-1.8 0,-3.5 0,-5.1 0,-127.8 0,-255.6 -0.1,-383.4 0,-4.2 1.2,-6.7 5.1,-7.9 2.8,-0.9 5.7,-1.9 8.6,-2.1 6.3,-0.3 12.6,-0.1 19,-0.1 4.1,0 7.7,1.9 11.2,3.8 2.5,1.4 2.8,3.9 3.3,6.3 0.2,1.1 0,2.3 0,3.5 0,126.8 0,253.6 0,380.4 -0.1,1.9 -0.1,3.7 -0.1,5.7 z" />
              <path
   id="XMLID_7_"
   fill="#f23838"
   d="m 473.9,11.5 c 0,7.2 0,14.3 0,21.4 -3.6,-1.4 -6.9,-3.2 -10.3,-3.8 -5.5,-0.9 -11.2,-1.2 -16.8,-1.2 -25,-0.1 -50,-0.1 -75,0.1 -8.1,0.1 -16.2,0.7 -24.3,1.8 -12.6,1.8 -24.2,6.8 -35.1,13.2 -13.3,8 -25.6,17.5 -37.7,27 -9.3,7.3 -18.4,14.8 -28.8,20.4 -7.6,4.1 -15.5,7.6 -23.9,9.8 -1.8,0.5 -3.9,0.1 -5.4,1 -1.8,0.9 -3.3,2.3 -5.4,0.9 -2.3,3.4 -6,0.5 -8.9,2.2 -1.9,1.1 -4.6,0.8 -7,0.8 -4.4,0 -8.7,0.2 -13.1,0.2 -4.5,-0.1 -9,-0.2 -13.5,-0.2 -22.7,0 -45.3,0 -68,0 -1.3,0 -2.7,0.1 -4,-0.1 C 93.3,104.6 92,103.3 92,99.9 92,77.4 91.6,54.9 92.1,32.4 92.4,20.5 98.5,11.8 112,9 c 2.9,-0.6 5.9,-0.9 8.9,-0.9 111.5,0 223,0 334.5,-0.1 6.3,0 12.4,1.2 18.5,3.5 z" />
              <path
   id="XMLID_8_"
   fill="#f23838"
   d="m 476.2,535 c 0,-160.6 0,-320.5 0,-480.8 1.2,-0.1 2.4,-0.2 3.5,-0.2 20.2,0 40.3,-0.3 60.5,0.2 16.5,0.4 31.8,5.6 46.2,13.6 13.7,7.7 26,17.3 38.1,27.1 11.9,9.6 23.9,19 38,25.3 10.8,4.8 22,8.1 33.7,9.9 8.6,1.3 17.2,2 25.8,1.5 29.8,-1.6 59.6,-0.3 89.4,-0.7 0.6,0 1.3,0.1 2.3,0.1 0.1,1.5 0.2,2.9 0.2,4.4 0,121.7 0.1,243.3 -0.1,365 0,6.9 -0.4,14 -3,20.5 -3.2,7.9 -8.6,12.9 -17.5,13.2 -5.8,0.2 -11.6,0.7 -17.4,0.7 -97.8,0 -195.7,0 -293.5,0 -1.9,0.2 -3.8,0.2 -6.2,0.2 z" />
              <path
   id="XMLID_9_"
   fill="#f23838"
   d="m 415,44.1 c 3.3,0 6.3,0 10,0 0,40.8 0,81.5 0,122.3 0,41.2 0,82.3 0,123.5 0,41 0,82 0,123 0,40.8 -0.1,81.6 0,123 -1.9,0.1 -3.5,0.2 -5,0.2 -59.8,-0.1 -119.7,0 -179.5,-0.2 -43.5,-0.1 -86.9,-0.6 -130.4,-0.8 -6.4,0 -12,-2.1 -16.1,-6.7 -3,-3.3 -5.3,-7.5 -5.9,-12.2 -0.6,-4.8 -1.1,-9.6 -1.1,-14.4 -0.1,-125.3 0,-250.6 0,-376 0,-1.5 0,-2.9 0,-4.6 3.5,0 6.6,0 9.8,0 -2,4.5 -3.4,9 -1.9,14 0.4,1.2 0.1,2.6 0.1,4 0,120.5 0,241 0,361.5 0,3.8 -0.3,7.6 0.1,11.3 1.1,10.9 9.3,16.7 20.2,15.7 2.3,-0.2 4.6,-0.6 6.9,-0.6 96.2,0 192.3,0 288.5,0 1.8,0 3.6,0 5.9,0 0.1,-1.6 0.2,-3.1 0.2,-4.5 0.1,-33.7 0.2,-67.3 0.2,-101 0.1,-41.8 0,-83.7 0.1,-125.5 0.2,-68.1 0.6,-136.3 0.9,-204.4 0,-11.5 0,-23 0.2,-34.5 0,-4.6 -0.3,-9 -3.2,-13.1 z" />
              <path
   id="XMLID_10_"
   fill="#a31111"
   d="m 76.4,529.2 c -2.1,-5.1 -3.5,-9.6 -3.5,-14.5 0,-4.2 0,-8.3 0,-12.5 0,-150 0,-300 0,-450 0,-3.8 -0.2,-7.7 -0.1,-11.5 0.3,-13.4 6.4,-23.1 18.7,-28.5 3.7,-1.6 7.8,-2.3 11.9,-3.1 -5.4,3.2 -9.2,7.5 -11.2,13.2 -1.1,3.2 -2.2,6.7 -2.2,10 -0.2,22.7 -0.1,45.3 -0.1,68 0,1.3 0.2,2.6 0.3,4.1 -4.1,1.3 -5.4,4.5 -5.4,9 0.2,40.3 0.2,80.4 0.2,120.6 0,87.3 0,174.7 0,262 0,15.4 0,15.4 -6.8,29.4 -0.5,1.1 -1,2.1 -1.8,3.8 z" />
              <path
   id="XMLID_11_"
   fill="#9a0505"
   d="m 432.7,544.8 c -107.4,0 -215.3,0 -324.2,0 1.4,-2.9 2.7,-5.2 4,-7.8 1.8,0 3.5,0 5.1,0 36.5,0 73,-0.6 109.5,0.2 64.3,1.4 128.6,0.3 192.9,0.8 2.3,0 4,0.4 5.7,2.2 2.1,1.9 4.8,3.2 7,4.6 z" />
              <path
   id="XMLID_12_"
   fill="#e23434"
   d="m 474,66.4 c -15.6,-7.5 -31.1,-7.1 -47,-0.9 0,-9.4 -0.1,-18.8 0.1,-28.3 0,-1 1,-2.6 2,-3 3.6,-1.6 7.3,-3.7 11.1,-3.9 7.6,-0.5 15.3,-1.4 22.8,0.7 2.7,0.7 5.3,1.9 7.8,3.2 2.4,1.3 3.3,3.7 3.3,6.3 -0.1,8.7 -0.1,17.3 -0.1,25.9 z" />
              <path
   id="XMLID_13_"
   fill="#e23434"
   d="m 474,532.6 c -15.6,-6.7 -30.9,-6.5 -46.7,-1 -0.1,-0.7 -0.3,-1.8 -0.3,-2.8 0,-6.3 0.2,-12.7 -0.1,-19 -0.1,-3.2 1.2,-4.7 3.8,-6.1 3.9,-2.1 8.2,-2.8 12.4,-3.2 9,-0.9 17.9,-0.7 26.2,3.5 3.2,1.6 4.6,4.2 4.6,7.5 0.1,7 0.1,14 0.1,21.1 z" />
              <path
   id="XMLID_14_"
   fill="#9a0505"
   d="m 87,118.8 c 0,-2.9 -0.1,-5.4 0,-7.8 0.1,-2.3 1.5,-3.6 3.8,-3.9 0.7,-0.1 1.3,-0.1 2,-0.1 27,0 53.9,0 80.9,0 1,0 1.9,0.1 3.2,0.2 -0.3,4.5 -2.5,7.9 -4.4,11.6 -28.4,0 -56.6,0 -85.5,0 z" />
              <path
   id="XMLID_15_"
   fill="#9a0505"
   d="m 207,117 c 1.4,-3.8 2.8,-7.7 4.4,-11.4 0.2,-0.4 1.4,-0.4 3,-0.8 -1.5,4 -2.6,7.2 -3.8,10.4 3.3,-1.4 4.2,-4.2 5,-6.8 1.1,-3.6 3.1,-5.2 6.7,-6.2 16.3,-4.5 30.7,-12.5 44,-22.9 12.3,-9.7 24.9,-19 37.4,-28.5 0.5,-0.4 1.1,-0.6 2.5,-1.3 -0.5,2.1 -0.9,3.5 -1.2,4.8 -1.6,5.5 -4.5,9.7 -9.5,13.1 -10,7 -19.5,14.8 -29,22.5 -14.7,11.9 -30.8,20.9 -49.4,25.1 -3,0.7 -6.1,1.3 -9.1,1.9 -0.3,0.5 -0.6,0.5 -1,0.1 z" />
              <path
   id="XMLID_16_"
   fill="#9a0505"
   d="m 341.9,41.7 c 1.2,-3.3 2.3,-6.2 3.6,-9.7 3.3,-0.3 6.8,-0.8 10.4,-1.1 23.4,-1.6 46.8,-0.8 70.3,-1 1.7,0 3.3,0 5.7,0 -1.8,1.1 -3.1,1.7 -4.2,2.7 -1.3,1.2 -2.8,2.5 -3.3,4 -0.4,1.3 0.5,3.1 0.8,5 -27.8,0.1 -55.2,0.1 -83.3,0.1 z" />
              <path
   id="XMLID_17_"
   fill="#e23434"
   d="m 459.8,480.2 c 0,6.7 0,12.4 0,18.5 -11.3,-1.5 -22.2,-1.2 -32.8,4.4 0,-5.6 0,-10.7 0,-15.8 0,-1.8 0.8,-2.8 2.4,-3.3 3.6,-1.2 7.1,-2.8 10.7,-3.5 6.4,-1.1 12.8,-0.5 19.7,-0.3 z" />
              <path
   id="XMLID_18_"
   fill="#e23434"
   d="m 427.1,85.9 c 0,-5.9 0,-11.5 0,-17.4 10.2,-6.5 21.2,-5.9 32.6,-4.8 0,6.2 0,11.9 0,18.1 -11.2,-1.1 -22.1,-1.2 -32.6,4.1 z" />
              <path
   id="XMLID_19_"
   fill="#9a0505"
   d="m 450.3,529.5 c 4.6,0.5 9.2,0.7 13.7,1.6 2.5,0.5 5,1.8 7.2,3.1 2.4,1.4 2.5,3.9 0.2,5.7 -1,0.8 -2.2,1.5 -3.4,1.9 -11.4,4.2 -22.9,4.1 -34.5,0.8 -1.7,-0.5 -3.4,-1.4 -4.8,-2.4 -2.7,-1.9 -2.4,-4.5 0.5,-6.3 4.3,-2.7 9.1,-3.8 14.1,-3.9 2.3,0 4.7,0 7,0 0,-0.2 0,-0.3 0,-0.5 z" />
              <path
   id="XMLID_20_"
   fill="#e23434"
   d="m 462.2,82.3 c 0,-6.2 0,-11.9 0,-18.3 1.7,0.5 3.1,0.9 4.7,1.3 0,5.9 0,11.5 0,17.7 -1.7,-0.2 -3.1,-0.4 -4.7,-0.7 z" />
              <path
   id="XMLID_21_"
   fill="#e23434"
   d="m 462.2,498.9 c 0,-6.2 0,-11.9 0,-18.1 1.8,0.5 3.2,1 4.6,1.4 0,6.1 0,11.9 0,18.1 -1.7,-0.6 -3.1,-1 -4.6,-1.4 z" />
              <path
   id="XMLID_22_"
   fill="#e23434"
   d="m 474,87.2 c -2,-1.1 -3.4,-1.9 -4.7,-2.7 0,-5.9 0,-11.6 0,-17.7 3.5,1.5 4.6,4.1 4.7,7.2 0.1,4.2 0,8.3 0,13.2 z" />
              <path
   id="XMLID_23_"
   fill="#e23434"
   d="m 474,504.1 c -1.9,-1.1 -3.4,-1.8 -4.7,-2.6 0,-5.9 0,-11.6 0,-17.7 3.7,1.3 4.6,4.1 4.7,7.1 0.1,4.1 0,8.3 0,13.2 z" />
              <path
   id="XMLID_24_"
   fill="#940505"
   d="m 85.4,515.1 c 2,3.5 1.3,6.4 -0.2,9.3 -1.7,3.4 -3.2,7.1 -5,11.3 -1.3,-1.7 -2.1,-2.8 -2.7,-3.5 2.7,-5.9 5.3,-11.3 7.9,-17.1 z" />
              <path
   id="XMLID_25_"
   fill="#900505"
   d="m 305.2,59.7 c 1.5,-4 2.8,-8.2 4.7,-12 0.8,-1.5 2.8,-2.4 5,-3.2 -1.4,3.9 -2.4,8 -4.2,11.7 -0.8,1.7 -3.1,2.7 -4.7,3.9 -0.3,-0.1 -0.6,-0.3 -0.8,-0.4 z" />
              <path
   id="XMLID_26_"
   fill="#900505"
   d="m 179.6,118.9 c -1.7,0 -2.8,0 -3.9,0 0,-0.4 -0.2,-0.7 -0.1,-1 1.1,-2.6 2.2,-5.1 3.3,-7.7 0.8,-1.9 1.9,-3.5 4.8,-3 -0.2,4.3 -3.2,7.5 -4.1,11.7 z" />
              <path
   id="XMLID_27_"
   fill="#900505"
   d="m 83.6,539.2 c -0.5,-0.9 -1.6,-2 -1.4,-2.5 1.7,-4.2 3.7,-8.3 6.1,-12.2 2.6,5.8 -2.3,9.6 -3.5,14.4 -0.4,0 -0.8,0.1 -1.2,0.3 z" />
              <path
   id="XMLID_28_"
   fill="#900505"
   d="m 182,118.2 c 1.3,-3 2.6,-6 3.9,-9 0.8,-1.9 1.9,-2.5 4.4,-1.5 -1.5,3.5 -2.8,7 -4.5,10.3 -0.4,0.8 -2.1,0.9 -3.2,1.3 -0.1,-0.4 -0.3,-0.7 -0.6,-1.1 z" />
              <path
   id="XMLID_29_"
   fill="#900505"
   d="m 207,117 c 0.3,0 0.7,0 1,0 -3.1,1.2 -3.1,1.2 -7.4,0.4 1.5,-3.5 2.8,-7 4.5,-10.3 0.4,-0.8 2.1,-0.9 3.7,-1.5 -1.5,3.6 -2.7,6.3 -3.8,9 -0.5,1.6 0.2,2.5 2,2.4 z" />
              <path
   id="XMLID_30_"
   fill="#900505"
   d="m 187.9,119.7 c 5.3,-12.3 5.3,-12.3 8.7,-12 -1.6,3.6 -2.9,7 -4.6,10.3 -0.5,0.8 -2.1,0.9 -4.1,1.7 z" />
              <path
   id="XMLID_31_"
   fill="#900505"
   d="m 86.2,540.8 c 1.8,-3.9 3.5,-7.4 5.1,-10.9 1.7,0.7 2.9,1.2 2.2,3 -1.1,2.6 -2.2,5.1 -3.3,7.7 -1,2.3 -2.3,1.7 -4,0.2 z" />
              <path
   id="XMLID_32_"
   fill="#940505"
   d="m 197.9,118.8 c -0.8,0 -2.1,0 -3.6,0 1.6,-3.6 3,-6.9 4.5,-10.2 0.5,-1.2 0.6,-1.2 3.5,-1.2 -1.5,3.9 -2.9,7.5 -4.4,11.4 z" />
              <path
   id="XMLID_33_"
   fill="#900505"
   d="m 314,53.4 c 1.2,-3.2 2.4,-6.3 3.5,-9.5 0.7,-1.9 2.1,-2.6 4.7,-2.9 -2.4,4.9 -2.7,10.2 -7.3,13 -0.3,-0.2 -0.6,-0.4 -0.9,-0.6 z" />
              <path
   id="XMLID_34_"
   fill="#900505"
   d="m 335.7,35.5 c -1.3,4.1 -1.7,8.9 -8,10.8 3,-4.2 2.1,-9.8 8,-10.8 z" />
              <path
   id="XMLID_35_"
   fill="#900505"
   d="m 95.9,545.4 c 1.6,-3.3 2.7,-5.7 4,-8 0.4,-0.6 1.5,-0.8 2.2,-1.2 0.3,0.7 1,1.5 0.8,2.1 -0.8,2.1 -1.7,4.3 -3,6.2 -0.4,0.5 -1.9,0.4 -4,0.9 z" />
              <path
   id="XMLID_36_"
   fill="#900505"
   d="m 322.3,48.9 c -0.6,-3.1 1.7,-5.2 2.3,-7.8 0.2,-1 1.1,-1.9 1.9,-2.7 0.4,-0.4 1.2,-0.3 1.9,-0.4 -1.5,7.1 -2.5,9 -6.1,10.9 z" />
              <path
   id="XMLID_37_"
   fill="#900505"
   d="m 335.9,42.5 c 1.9,-3.4 1.4,-8.1 6.5,-9.8 -1.7,8.8 -2.4,9.9 -6.5,9.8 z" />
              <path
   id="XMLID_38_"
   fill="#900505"
   d="m 91.5,543.3 c 1.2,-2.7 2.3,-5.5 3.5,-8.2 0.3,-0.5 1.2,-0.8 1.8,-1.1 0.3,0.8 1,1.7 0.8,2.4 -0.7,2.2 -1.6,4.3 -2.8,6.3 -0.5,0.8 -1.9,1.1 -2.9,1.6 -0.1,-0.3 -0.2,-0.6 -0.4,-1 z" />
              <path
   id="XMLID_39_"
   fill="#900505"
   d="m 110.3,536.7 c -2.6,3.5 -2.6,7.8 -7,9.3 -0.2,-3.4 1,-6 2.7,-8.3 0.6,-0.7 2.3,-0.5 4.3,-1 z" />
              <path
   id="XMLID_40_"
   fill="#050505"
   d="m 483,178.3 c 0,-9.3 0,-18.7 -0.1,-28 -0.2,-22.5 -0.5,-44.9 -0.6,-67.4 0,-2.9 0.4,-6 1.2,-8.8 1.4,-5 4.3,-7 9.5,-7.1 7.7,-0.1 15.3,0 23,0 13,0 26,0.1 39,0 7.3,-0.1 14,2.1 20.3,5.5 17.5,9.4 33.1,21.5 48.6,33.8 11,8.8 21.7,18.1 34.6,24.3 8.1,3.9 16.1,7.8 25.2,8.9 1.4,0.2 2.6,1.2 4,1.6 11.2,3.1 22.6,3.1 34.1,3 20.3,-0.1 40.7,-0.1 61,-0.1 4.7,0 9.3,0.2 14,-0.2 6.8,-0.5 10.4,1.6 10.4,10.1 -0.2,58.7 -0.1,117.3 -0.1,176 0,58.2 0,116.3 0,174.5 0,4.6 -0.6,8.9 -2.7,13 -3.3,6.4 -8.5,9.5 -15.6,9.5 -99.8,0 -199.6,0.1 -299.4,0.1 -0.5,0 -1,0 -1.5,0 -3.3,-0.1 -3.5,-0.4 -3.6,-3.9 0,-0.7 0,-1.3 0,-2 -0.1,-49.3 -0.1,-98.6 -0.2,-148" />
              <path
   id="XMLID_47_"
   fill="#afafaf"
   d="m 254.3,136 c 44.5,0 89,0 133.5,0 7.8,0 12,4 12.2,11.8 0,1.2 0,2.3 0,3.5 0,71.3 0,142.6 0,213.9 0,1.7 0,3.3 -0.1,5 -0.5,6.3 -4.7,10.4 -11,10.7 -1.5,0.1 -3,0.1 -4.5,0.1 -75.3,0 -150.6,0 -225.9,0.1 -3.4,0 -5.8,-0.8 -8.3,-3.3 -12.1,-12.4 -24.4,-24.6 -36.8,-36.7 -2.5,-2.4 -3.5,-4.8 -3.5,-8.2 0.1,-60.5 0.1,-121 0.1,-181.4 0,-1.5 0,-3 0,-4.5 -0.2,-7 3.4,-10.9 10.4,-10.9 C 165,136 209.7,136 254.3,136 Z" />
              <path
   id="XMLID_48_"
   fill="#656565"
   d="m 392.2,383 c -2.7,2.2 -5.2,3 -8.1,3 -76.3,0 -152.6,0 -228.9,0 -2.5,0 -4.3,-0.7 -6.1,-2.5 -14.2,-14.3 -28.4,-28.6 -42.7,-42.8 -1.7,-1.7 -2.3,-3.4 -2.3,-5.7 0.1,-60.7 0,-121.3 0.1,-182 0,-4.2 1.2,-8.1 3.9,-12.3 0,15.2 0.1,29.7 0.1,44.2 0,14.8 0,29.7 0,44.5 0,14.7 0,29.3 0,44 0,20.3 0.1,40.7 -0.1,61 0,2.9 0.8,4.9 2.8,7 12.9,12.7 25.8,25.6 38.6,38.5 2.3,2.4 4.7,3.1 7.9,3.1 77,-0.1 154,-0.1 230.9,-0.1 1,0.1 2.2,0.1 3.9,0.1 z" />
              <path
   id="XMLID_49_"
   fill="#056565"
   d="m 349.3,433.1 c -0.4,-4 -0.7,-7.3 -1,-10.5 -0.1,-1.5 -0.2,-3 -0.3,-4.5 -0.3,-3.4 -0.6,-6.9 -0.9,-10.3 -0.1,-1.3 -0.3,-2.7 0.1,-4 0.4,-1.6 1.2,-2.9 3.4,-2.9 5.3,0.2 10.7,0 16,0.1 2.7,0.1 3.6,0.8 3.4,3.7 -0.4,6.2 -1.1,12.5 -1.6,18.7 -0.2,2.9 0,5.9 0,9.4 2.1,0 4.2,0.1 6.3,0 3.3,-0.2 6.6,-0.6 9.8,-0.9 3.3,-0.3 6.5,-0.8 9.8,-0.9 4.6,-0.2 5.7,1 5.7,5.4 0.1,4 0.1,8 0,12 -0.1,4.3 -2.1,5.5 -6.3,5.1 -8,-0.8 -16.1,-1.1 -24.2,-1.6 -1.5,10.1 1,19.6 0.5,29.9 -1.7,0.4 -3.5,1.2 -5.3,1.2 -4.5,0.2 -9,0.1 -13.5,0 -3.6,0 -4.3,-0.6 -4.1,-4 0.5,-6.1 1.3,-12.1 1.8,-18.2 0.2,-2.8 0,-5.6 0,-8.8 -4.4,0.1 -8.4,-0.5 -12.5,0.6 -1.7,0.5 -3.6,0.1 -5.5,0.3 -2.9,0.2 -5.9,0.5 -8.8,0.9 -2.8,0.4 -5,-1.1 -5,-4 -0.2,-5 -0.1,-10 0,-15 0.1,-2.5 1.6,-3.8 4.2,-3.9 2,0 3.9,0.3 5.9,0.5 7,0.6 14,1.1 22.1,1.7 z" />
              <path
   id="XMLID_50_"
   fill="#fafa05"
   d="m 219.6,507 c -17.6,0 -35.3,0 -52.9,0 -4.8,0 -6.8,-2.1 -6.8,-7 0.1,-13.6 0.1,-27.3 0,-40.9 0,-4.3 1.8,-6.5 5.9,-7 1.3,-0.2 2.7,-0.1 4,-0.1 33.1,0 66.2,0 99.4,0 1.3,0 2.7,0 4,0.1 3.2,0.3 5.3,1.9 6,5 0.4,1.8 0.8,3.6 0.8,5.4 0.1,11.7 0.1,23.3 0,35 0,1.6 -0.4,3.3 -0.9,4.8 -1.1,3.5 -2.9,4.7 -6.6,4.7 -17.6,0 -35.3,0 -52.9,0 0,0 0,0 0,0 z" />
              <path
   id="XMLID_51_"
   fill="#307afa"
   d="m 134.9,390.7 c 10.4,-0.1 19,8 19.1,18.2 0.1,10.8 -8,18.7 -18.5,19.5 -11.1,0.8 -19.8,-9.3 -19.7,-18.1 0.2,-11.7 7.3,-19.4 19.1,-19.6 z" />
              <path
   id="XMLID_52_"
   fill="#fa6505"
   d="m 270.1,405 c 6.7,0 13.3,-0.1 20,0 3.9,0 5.8,1.7 6.1,5.1 0.3,3 -0.7,4.8 -3.5,5.9 -1.7,0.6 -3.5,1 -5.3,1 -11.7,0.1 -23.3,0.1 -35,0 -1.8,0 -3.6,-0.4 -5.3,-1 -2.9,-1.1 -3.9,-3.4 -3.3,-6.5 0.5,-2.7 2.3,-4.3 5.2,-4.4 7.1,-0.2 14.1,-0.1 21.1,-0.1 z" />
              <path
   id="XMLID_53_"
   fill="#50fa05"
   d="m 198.6,417 c -5.7,0 -11.3,0.1 -17,0 -1.9,0 -4,-0.4 -5.8,-1 -2.7,-0.9 -4.2,-3.7 -3.8,-6.3 0.4,-2.5 2.8,-4.6 5.6,-4.7 14,-0.1 27.9,-0.1 41.9,0 2.9,0 5.2,2.1 5.5,4.7 0.4,2.8 -0.9,5.3 -3.7,6.2 -1.7,0.6 -3.5,0.9 -5.3,1 -5.8,0.2 -11.6,0.1 -17.4,0.1 z" />
              <path
   id="XMLID_54_"
   fill="#fafaf"
   d="m 140.6,93.4 c -17.7,1 -39.5,-15 -39.4,-39.8 0.1,-20.2 16.6,-39.5 39.9,-39.4 23.3,0.1 39.7,19.5 39.7,39.7 0,24.5 -21.9,40.8 -40.2,39.5 z" />
              <path
   id="XMLID_55_"
   fill="#50fa05"
   d="m 257.3,17.8 c 6.1,0 8.9,2.8 8.9,8.7 0,5.4 -3.7,9.4 -8.7,9.4 -4.7,0 -9.2,-4.4 -9.3,-9.2 -0.2,-4.8 4,-8.9 9.1,-8.9 z" />
              <path
   id="XMLID_56_"
   fill="#f90505"
   d="m 194.6,17.8 c 5.7,0 9.3,3.2 9.3,8.6 0.1,5.2 -4,9.5 -9.3,9.5 -4.9,0 -8.6,-4.1 -9,-9.2 -0.2,-4.6 4,-9.8 9,-8.9 z" />
              <path
   id="XMLID_57_"
   fill="#f9f905"
   d="m 226,17.7 c 5.7,0 9.1,3.3 9.2,8.8 0,5.2 -3.9,9.3 -9,9.3 -4.9,0.1 -9.2,-4.2 -9.3,-9.1 -0.1,-5.2 3.7,-9 9.1,-9 z" />
              <path
   id="XMLID_58_"
   fill="#f23838"
   d="m 484.9,78 c 2.1,0 3.7,0 5.3,0 18.2,0 36.3,0.2 54.5,-0.1 7.9,-0.1 15.3,1.6 21.9,5.6 10.2,6.2 20.3,12.7 29.9,19.7 11.4,8.3 22.1,17.6 33.3,26.1 15.9,12.2 33.9,19.9 53.6,23.7 11,2.1 22.2,2.6 33.3,1.8 21.6,-1.5 43.2,-0.5 64.9,-0.8 3.1,0 6.3,0.3 9.4,0.8 4.2,0.6 5.2,2 5.2,6.4 0,116.3 0,232.6 -0.1,349 0,3.5 -0.1,7 -0.8,10.4 -0.7,3.7 -1.7,4.2 -5.5,4.4 -2.8,0.1 -5.7,0.1 -8.5,0.1 -97,0 -194,0 -291,0 -1.2,0 -2.3,0 -4.1,0 0,-1.8 0,-3.4 0,-5 -0.1,-30.8 -0.2,-61.7 -0.2,-92.5 -0.1,-39.2 0,-78.3 -0.2,-117.5 -0.2,-65 -0.6,-129.9 -0.8,-194.9 C 484.9,103 484.9,90.8 484.9,78 Z" />
              <path
   id="XMLID_59_"
   fill="#9a0505"
   d="m 798,521.1 c 0,-4.8 0,-8.9 0,-13.1 0,-108.8 0.1,-217.6 -0.1,-326.4 0,-7.5 2,-13.9 6.1,-21.1 0,2.7 0,4.4 0,6.1 0,111.1 0,222.2 0,333.4 0,3.3 0.1,6.7 -0.1,10 -0.2,4.2 -1.6,8 -5.9,11.1 z" />
              <path
   id="XMLID_60_"
   fill="#9a0505"
   d="m 653.7,131.3 c -1.2,2.8 -2.2,5.2 -3.4,7.8 -4.8,-1.2 -8.6,-3.8 -12.2,-6.6 -13.3,-10.1 -26.4,-20.4 -39.7,-30.6 -4.6,-3.5 -9.4,-6.8 -14.3,-9.9 -2.1,-1.3 -2.7,-2.7 -1.8,-4.9 0.8,-1.9 1.6,-3.9 2.4,-6.1 8.2,4.5 15.1,10.1 22.1,15.5 11.1,8.6 22.1,17.5 33.2,26 4.4,3.3 9.1,5.8 13.7,8.8 z" />
              <path
   id="XMLID_61_"
   fill="#9a0505"
   d="m 683.6,143 c 1.4,0.1 2.7,0.1 4,0.4 7.1,1.9 14.2,2.7 21.5,2.7 25.8,-0.1 51.6,0 77.4,-0.1 1.6,0 3.3,0 5.1,0 -0.3,1 -0.5,1.6 -0.7,2.2 -0.9,3 -2.8,3.9 -5.9,3.9 -17.7,-0.2 -35.3,-0.2 -53,0 -10.3,0.1 -20.5,0.9 -30.8,0.8 -5.7,0 -11.5,-1.1 -17.2,-2 -3.3,-0.5 -3.6,-1.3 -2.3,-4.3 0.6,-1.1 1.2,-2.3 1.9,-3.6 z" />
              <path
   id="XMLID_62_"
   fill="#9a0505"
   d="m 553.3,69.8 c -0.8,1.9 -1.6,3.8 -2.5,5.9 -21.4,0 -42.9,0 -64.3,0 1,-4.5 3,-6.7 7.1,-6.7 19.5,-0.1 39,0 58.5,0 0.2,0.1 0.4,0.4 1.2,0.8 z" />
              <path
   id="XMLID_63_"
   fill="#900505"
   d="m 577.6,76.2 c -0.9,3.3 -1.9,6.3 -4.3,9.1 -1.2,-0.9 -2.1,-1.6 -3.2,-2.5 1.1,-2.7 2.2,-5.3 3.4,-8.2 1.7,0.7 2.9,1.1 4.1,1.6 z" />
              <path
   id="XMLID_64_"
   fill="#900505"
   d="m 575.8,86.7 c 1.5,-3.3 2.6,-5.9 4,-8.8 1.1,0.5 2.1,1 3.3,1.5 -1.3,3.1 -2.4,5.8 -3.7,9 -1.2,-0.7 -2.3,-1.2 -3.6,-1.7 z" />
              <path
   id="XMLID_65_"
   fill="#900505"
   d="m 568,71.7 c 1.6,0.7 2.4,1.1 3.7,1.6 -1.2,2.8 -2.3,5.6 -3.6,8.5 -2.2,-0.7 -3.9,-1.2 -2.7,-3.7 0.9,-2 1.6,-3.9 2.6,-6.4 z" />
              <path
   id="XMLID_66_"
   fill="#890505"
   d="m 553.3,75.6 c 0.7,-2.2 1.4,-4.2 2.2,-6.4 1.4,0 2.8,0 4.8,0 -1.1,2.6 -1.8,4.9 -3.1,6.9 -1,1.6 -2.5,1.1 -3.9,-0.5 z" />
              <path
   id="XMLID_67_"
   fill="#940505"
   d="M 562.5,79.4 C 561,78.8 560.3,78.5 559,78 c 1.1,-2.6 2.1,-5.1 3.4,-7.5 0.2,-0.4 1.9,-0.1 3.7,-0.1 -1.3,3.4 -2.4,6 -3.6,9 z" />
              <path
   id="XMLID_68_"
   fill="#890505"
   d="m 654.8,141.8 c -0.9,-0.5 -1.6,-0.8 -2.6,-1.3 1.2,-2.8 2.4,-5.5 3.7,-8.4 2.8,2.8 2.8,2.8 -1.1,9.7 z" />
              <path
   id="XMLID_69_"
   fill="#900505"
   d="m 798.4,165.6 c -0.5,-5.6 3.2,-9.6 5.2,-14.2 0.8,5.7 -3.2,9.6 -5.2,14.2 z" />
              <path
   id="XMLID_70_"
   fill="#890505"
   d="m 802.7,147.3 c -1.6,3.4 -2.9,6.4 -4.4,9.6 -1.6,-0.9 -2.2,-2 -1.3,-3.9 1.1,-2.2 2.2,-4.4 3.3,-6.8 0.8,0.4 1.5,0.7 2.4,1.1 z" />
              <path
   id="XMLID_71_"
   fill="#900505"
   d="m 659.9,143.9 c -0.9,-0.4 -1.6,-0.8 -2.2,-1.1 0,-0.4 -0.1,-0.7 0,-0.9 0.8,-1.9 1.5,-3.9 2.5,-5.8 0.3,-0.5 1.3,-0.6 1.9,-0.9 0.3,0.7 1,1.5 0.8,2 -0.9,2.2 -2,4.3 -3,6.7 z" />
              <path
   id="XMLID_72_"
   fill="#900505"
   d="m 791.9,152.3 c 2,-6.1 2,-6.1 5.6,-5.9 -2.5,6.4 -2.5,6.4 -5.6,5.9 z" />
              <path
   id="XMLID_73_"
   fill="#890505"
   d="m 677.1,150.5 c -1.7,-4.2 0.7,-6.5 2,-9.5 0.7,0.6 1.5,1 1.5,1.4 0,2.7 -1.2,5.1 -3.5,8.1 z" />
              <path
   id="XMLID_74_"
   fill="#900505"
   d="m 671,147.2 c 1.2,-2.4 2.4,-4.8 3.8,-7.8 2.3,3.3 0.3,5.3 -0.7,7.3 -0.4,0.7 -1.4,1.1 -2.2,1.6 -0.3,-0.4 -0.6,-0.7 -0.9,-1.1 z" />
              <path
   id="XMLID_75_"
   fill="#900505"
   d="m 668.4,147.2 c -2.5,-1.7 -0.9,-3.1 -0.4,-4.2 0.6,-1.4 1.5,-2.7 2.4,-4 0.1,-0.1 0.9,0.2 1.8,0.4 -1.3,2.7 -2.6,5.2 -3.8,7.8 z" />
              <path
   id="XMLID_76_"
   fill="#900505"
   d="m 666.8,137.5 c -0.6,3 -0.4,6.3 -4.3,8.1 1.3,-6.1 1.5,-6.3 4.3,-8.1 z" />
              <path
   id="XMLID_78_"
   fill="#101010"
   d="m 293.3,370.9 c 1.4,-3.1 3.7,-2.6 5.8,-2.6 14.6,0 29.2,0 43.9,0 5.8,0 11.6,0 17.4,0 1.5,0 3,0.2 4.3,0.7 0.6,0.2 0.8,1.4 1.7,3 -24.3,0 -47.9,0 -71.4,0 -0.4,-0.1 -1,-0.7 -1.7,-1.1 z" />
              <path
   id="XMLID_79_"
   fill="#050505"
   d="m 293.2,344.4 c 1,-1.1 1.5,-2 2.2,-2.3 0.9,-0.3 2,-0.2 3,-0.2 21,0 41.9,0 62.9,0 1.2,0 2.4,-0.1 3.4,0.3 0.6,0.2 0.9,1.3 1.5,2.1 -4.1,1 -67.3,1.2 -73,0.1 z" />
              <path
   id="XMLID_80_"
   fill="#050505"
   d="m 293.6,352.9 c 0.6,-0.6 1,-1.5 1.8,-1.8 0.9,-0.3 2,-0.2 3,-0.2 21,0 41.9,0 62.9,0 1.2,0 2.4,-0.1 3.4,0.3 0.6,0.2 0.9,1.3 1.8,2.6 -24.6,0 -48.4,0 -72.3,0 -0.2,-0.3 -0.4,-0.6 -0.6,-0.9 z" />
              <path
   id="XMLID_81_"
   fill="#050505"
   d="m 293.4,362.7 c 0.7,-1.2 1,-2.4 1.7,-2.6 1,-0.4 2.3,-0.3 3.4,-0.3 20.8,0 41.6,0 62.4,0 1.3,0 2.7,0 4,0.3 0.4,0.1 1,1 1,1.4 0,0.5 -0.6,1.2 -1.1,1.3 -0.9,0.2 -2,0.2 -3,0.2 -21.3,0 -42.6,0 -63.9,0 -1.3,0.1 -2.6,-0.1 -4.5,-0.3 z" />
              <path
   id="XMLID_87_"
   fill="#a5fa6d"
   d="m 261.9,22.1 c 0,1.9 -1.4,2.9 -3.4,2.9 -2.1,0 -3.7,-1.1 -3.4,-2.6 0.4,-1.9 2.1,-2.2 3.7,-2.4 1.8,-0.1 2.8,0.8 3.1,2.1 z" />
              <path
   id="XMLID_88_"
   fill="#fa7373"
   d="m 193.1,21.7 c 3.4,-1.9 5.1,-2 5.8,-0.1 0.5,1.5 -0.2,2.6 -1.6,3.2 -2.1,0.9 -3.4,-0.2 -4.2,-3.1 z" />
              <path
   id="XMLID_89_"
   fill="#fafa8f"
   d="m 231.3,23 c -1.8,0.8 -3.2,1.7 -4.7,1.9 -0.8,0.1 -2.1,-1.1 -2.4,-1.9 -0.2,-0.6 1,-1.8 1.8,-2.4 2.1,-1.4 3.4,0 5.3,2.4 z" />
              <path
   id="XMLID_96_"
   fill="#fafafa"
   d="m 255,156 c 39.2,0 78.3,0 117.5,0 8.3,0 12.5,4.1 12.6,12.5 0,49.8 0,99.6 0,149.4 0,4.1 -0.8,7.9 -4.2,10.7 -1.9,1.5 -3.9,2.5 -6.4,2.3 -0.7,-0.1 -1.3,0 -2,0 -78.3,0 -156.6,0 -234.9,0 -2.1,0 -4.4,-0.2 -6.3,-1 -3.7,-1.5 -5.5,-4.7 -6,-8.6 -0.2,-1.6 -0.2,-3.3 -0.2,-5 0,-48.8 0,-97.6 0,-146.4 0,-3.7 0.2,-7.3 2.7,-10.3 1.9,-2.3 4.2,-3.7 7.3,-3.7 2.3,0 4.7,0 7,0 37.6,0.1 75.2,0.1 112.9,0.1 z" />
              <path
   id="XMLID_97_"
   fill="#fa0505"
   d="m 172.9,343.9 c 7.4,0 12.3,4.6 12.4,11.8 0.1,7.4 -4.6,12.1 -11.7,12.6 -7.7,0.5 -12.8,-6.2 -12.7,-12.2 0.2,-7.3 4.7,-12.2 12,-12.2 z" />
              <path
   id="XMLID_98_"
   fill="#fa0505"
   d="m 238.2,145.1 c 0.1,2.2 -1,3.7 -3,3.8 -1.9,0.2 -4.1,-1.7 -4.1,-3.5 0,-1.7 1.6,-3.3 3.5,-3.5 2.3,0 3.5,1 3.6,3.2 z" />
              <path
   id="XMLID_99_"
   fill="#fa0505"
   d="m 259,145.2 c 0.1,1.7 -1.6,3.6 -3.3,3.8 -1.7,0.2 -3.6,-1.4 -3.7,-3.2 -0.2,-2.4 1,-3.7 3.4,-3.8 2,0 3.4,1.2 3.6,3.2 z" />
              <path
   id="XMLID_100_"
   fill="#057979"
   d="m 357.2,451.4 c -4.6,-0.1 -8.7,-3.9 -8.6,-8 0.1,-4.5 4.4,-8.7 8.8,-8.7 5.4,0 9.1,3.7 9.1,8.9 -0.1,4.7 -4,8 -9.3,7.8 z" />
              <path
   id="XMLID_101_"
   fill="#05fafa"
   d="m 143.4,19.9 c 17.3,-1.3 30.8,16.4 30.9,30 0.1,17.8 -15.9,32.3 -31.1,31.6 -17.5,-0.8 -30.9,-13.5 -31,-31 -0.1,-16.9 14.7,-31.8 31.2,-30.6 z" />
              <path
   id="XMLID_112_"
   fill="#70ef52"
   d="m 638.7,435 c -36.3,0 -72.6,0 -108.9,0 -1.3,0 -2.7,0.1 -4,0 -4.7,-0.7 -6.8,-6.2 -6.8,-17.3 0,-77.5 0,-155.1 0,-232.6 0,-9.3 1.9,-14.7 5.8,-15.8 1.3,-0.4 2.7,-0.2 4,-0.2 73.3,0 146.6,0 219.9,0 1,0 2,-0.1 3,0.1 4.3,0.5 7,6.7 7.4,16.9 0.1,2 0,4 0,5.9 0,73.2 0,146.4 0,219.6 0,2.4 0.1,4.8 -0.1,7.1 -0.5,9.6 -3.2,15.6 -7.3,16.3 -1.3,0.2 -2.7,0.1 -4,0.1 C 711.3,435 675,435 638.7,435 Z"
   style="display:inline;fill:#fafafa;fill-opacity:1" />
              <path
   id="XMLID_115_"
   fill="#fa9a05"
   d="m 702.6,459 c 15,0 30,0.1 44.9,-0.1 4.7,-0.1 6.7,1 6.6,6.7 -0.3,10.6 -0.1,21.3 -0.1,31.9 0,6.4 -1,7.4 -7.6,7.4 -12.6,0 -25.3,0 -37.9,0 -16.3,0 -32.6,0 -48.9,0 -1.3,0 -2.7,0.1 -4,-0.1 -2.9,-0.4 -4.6,-2.4 -4.6,-5.4 0,-11.6 0,-23.3 0,-34.9 0,-4.4 1.2,-5.5 5.7,-5.6 15.3,0.1 30.6,0.1 45.9,0.1 z" />
              <path
   id="XMLID_116_"
   fill="#fa9a05"
   d="m 576.1,459 c 15,0 30,0 45,0 5.5,0 6.9,1.1 6.9,6.6 0.1,10.8 0.1,21.7 0,32.5 0,5 -1.9,6.9 -7,6.9 -30,0 -60,0 -89.9,0 -5,0 -7,-1.9 -7,-6.9 -0.1,-10.8 -0.1,-21.7 0,-32.5 0,-4.9 1.8,-6.6 6.6,-6.6 15.1,0 30.2,0 45.4,0 z" />
              <path
   id="XMLID_122_"
   fill="#9afacf"
   d="m 134.8,40.9 c -1.7,0 -3.3,0.2 -5,0 -2.9,-0.3 -4.4,-2.6 -3.6,-5.3 2.3,-7.6 13.4,-13.3 21,-10.7 3.2,1.1 4.9,3.4 5.8,6.3 1,3.4 0,5.1 -3.2,6.9 -3.2,1.6 -9.5,2.8 -15,2.8 z" />
            </g>

            <!-- text-->
          </svg>
